<?xml version="1.0" encoding="UTF-8"?>
<svg id="Layer_2" xmlns="http://www.w3.org/2000/svg" viewBox="0 0 847.83 826.28">
  <defs>
    <style>
      .cls-1 {
        fill: #99f;
      }

      .cls-2 {
        fill: #11005d;
        stroke: #9d90fa;
        stroke-miterlimit: 10;
        stroke-width: 28px;
      }
    </style>
  </defs>
  <g id="Assets">
    <g>
      <rect class="cls-2" x="14" y="14" width="819.83" height="798.28" rx="147" ry="147"/>
      <g>
        <path class="cls-1" d="M283.46,227.15c13.34,0,26.67,0,40.01,0,6.22,0,6.24,0,8.26,5.66,40.38,113.01,80.76,226.03,121.13,339.05.3.84.63,1.68.8,2.55.7,3.5-.25,4.75-3.89,4.78-8.08.07-16.16.03-24.24.03-14.36,0-28.73,0-43.09,0-6.13,0-6.65-.37-8.58-6-8.48-24.76-17.02-49.5-25.39-74.3-1.02-3.01-2.32-4.14-5.63-4.13-39.11.12-78.23.12-117.34,0-3.15,0-4.4.98-5.33,3.91-7.77,24.45-15.71,48.85-23.6,73.27-2.04,6.3-2.97,7-9.56,7-19.11,0-38.22,0-57.32,0-7.91,0-8.73-1.13-6.16-8.47,25.34-72.43,50.7-144.85,76.01-217.29,11.29-32.3,22.74-64.55,33.52-97.02,2.44-7.37,2.58-15.54,3.41-23.38.57-5.42.49-5.66,5.82-5.67,13.72-.01,27.44,0,41.17,0ZM241.76,428.06h84.76c-14.51-46.67-28.95-93.14-43-138.33-13.67,45.29-27.69,91.73-41.76,138.33Z"/>
        <path class="cls-1" d="M698.11,454.73c3.22.01,14.61.04,14.61.04,0,0-.08-28.06-.53-37.32-.79-15.71-3.24-31.33-8.35-46.01-7.96-22.85-22.93-42.48-44.05-54.72-11.32-6.57-23.86-10.91-36.75-13.22-45.85-8.23-96.3,2.73-125.12,41.42-23.05,30.94-29.77,71.6-29.68,109.29,0,0,.27,115.52,122.94,124.66,0,0,53.75,4.04,97.67-15.07v-58.39s-136.51,41.5-145.43-51.21c20.96.07,41.93.14,62.89.21,30.6.1,61.21.2,91.8.3ZM593.54,354.85c27.68,0,50.12,22.37,50.12,49.96h-100.25c0-27.59,22.44-49.96,50.12-49.96Z"/>
      </g>
    </g>
  </g>
</svg>