<?xml version="1.0" encoding="UTF-8"?>
<svg id="Layer_2" xmlns="http://www.w3.org/2000/svg" viewBox="0 0 847.83 828.86">
  <defs>
    <style>
      .cls-1 {
        fill: #30a8ff;
      }

      .cls-2 {
        fill: #001d33;
        stroke: #00a7ff;
        stroke-miterlimit: 10;
        stroke-width: 28px;
      }
    </style>
  </defs>
  <g id="Assets">
    <g>
      <rect class="cls-2" x="14" y="14" width="819.83" height="800.86" rx="147.24" ry="147.24"/>
      <path class="cls-1" d="M335.55,219.17h-133.62v356.04h75v-111.21h58.62c33.8,0,64.41-13.71,86.56-35.85,22.15-22.16,35.85-52.76,35.85-86.56,0-67.6-54.81-122.41-122.41-122.41ZM366.91,382.43c-10.46,10.45-24.9,16.91-40.84,16.91h-49.14v-115.52h49.14c31.9,0,57.76,25.86,57.76,57.76,0,15.95-6.47,30.39-16.91,40.84Z"/>
      <path class="cls-1" d="M692.02,495.38c0,23.63-11.02,46.18-28.41,61.94-19.6,17.76-46.82,25.34-72.7,27.31-3.1.24-6.21.39-9.32.45-28.76.59-58.99-5.53-85.12-17.6-.28-.13-.55-.26-.83-.38.04-20.96.09-41.92.13-62.89,0,1.15,20.79,6.17,23.37,7.02,23.72,7.78,52.04,13.61,77.03,10.41,5.28-.68,10.7-1.99,14.79-5.39,15.42-12.8-.21-28.73-12.78-34.84-13.62-6.62-28.3-10.81-42.22-16.8-13.19-5.67-25.77-13.03-36.28-22.82-34.76-32.39-33.41-86.77,2.02-118.23,20.06-17.81,47.14-23.46,73.29-24.61,27.07-1.19,54.38,3.63,79.43,13.94.96.4,1.98.85,2.51,1.74.45.76.47,1.69.47,2.57.02,21.4.05,42.81.07,64.21-4.08-3.48-9.66-4.93-14.5-7.05-5.24-2.29-10.61-4.32-16.06-6.06-19.3-6.19-44.37-11.9-64.19-5.11-7.28,2.5-12.71,7.68-12.71,15.75,0,12.47,12.22,18.47,22.22,23.03,12.38,5.64,25.58,9.08,37.92,14.8,32.05,14.86,61.84,40.36,61.84,78.61Z"/>
    </g>
  </g>
</svg>