<?xml version="1.0" encoding="UTF-8"?>
<svg id="Layer_2" xmlns="http://www.w3.org/2000/svg" viewBox="0 0 847.83 828.86">
  <defs>
    <style>
      .cls-1 {
        fill: #11005d;
        stroke: #9d90fa;
        stroke-miterlimit: 10;
        stroke-width: 28px;
      }

      .cls-2 {
        fill: #9a99ff;
      }
    </style>
  </defs>
  <g id="Assets">
    <g>
      <rect class="cls-1" x="14" y="14" width="819.83" height="800.86" rx="147.24" ry="147.24"/>
      <g>
        <path class="cls-2" d="M321.97,236.41h-133.62v356.04h75v-111.21h58.62c33.8,0,64.41-13.71,86.56-35.85,22.15-22.16,35.85-52.76,35.85-86.56,0-67.6-54.81-122.41-122.41-122.41ZM353.34,399.67c-10.46,10.45-24.9,16.91-40.84,16.91h-49.14v-115.52h49.14c31.9,0,57.76,25.86,57.76,57.76,0,15.95-6.47,30.39-16.91,40.85Z"/>
        <path class="cls-2" d="M564.22,354.62v-34.58h-71.55v272.41h71.55v-154.99c0-12.97,6.25-25.23,16.92-32.6,28.78-19.88,78.34-17.15,78.34-17.15v-75c-62.07,0-95.26,41.91-95.26,41.91Z"/>
      </g>
    </g>
  </g>
</svg>