<?xml version="1.0" encoding="UTF-8"?>
<svg id="Layer_2" xmlns="http://www.w3.org/2000/svg" viewBox="0 0 833.17 833.17">
  <defs>
    <style>
      .cls-1 {
        fill: #ff40f0;
      }

      .cls-2 {
        fill: #480036;
        stroke: #ff40f0;
        stroke-miterlimit: 10;
        stroke-width: 33.53px;
      }
    </style>
  </defs>
  <g id="Assets">
    <g id="Xd">
      <rect class="cls-2" x="16.77" y="16.77" width="799.64" height="799.64" rx="90.04" ry="90.04"/>
      <g>
        <path class="cls-1" d="M321.71,406.13l100.34,162.92c1.99,2.48.5,4.47-1.99,4.97h-61.1c-3.97,0-5.96-.99-7.45-3.97-23.84-40.73-48.18-81.96-72.52-124.67h-.5c-22.35,41.72-45.7,83.94-69.04,124.67-1.49,2.98-2.98,3.97-5.96,3.97h-58.12c-3.48,0-3.48-2.98-1.99-4.97l97.36-158.95-95.37-157.95c-1.49-2.48,0-4.47,2.48-4.47h60.6c2.98,0,4.47.5,5.96,3.48,21.85,41.23,46.69,81.96,69.04,123.18h.5c21.86-41.23,45.2-81.96,68.05-122.69.99-2.48,2.48-3.97,5.96-3.97h55.63c2.98,0,3.48,1.99,1.99,4.97l-93.88,153.48Z"/>
        <path class="cls-1" d="M431.48,453.82c0-72.02,53.64-129.64,141.07-129.64,6.95,0,12.91.5,21.36,1.49v-101.83c0-2.48.99-3.48,2.98-3.48h54.14c2.48,0,2.48.99,2.48,2.98v300.01c0,9.93.99,22.85,1.99,31.79,0,2.48-.5,3.48-2.98,4.47-32.29,13.91-64.08,19.37-93.88,19.37-72.02,0-127.16-41.72-127.16-125.17ZM593.91,377.82c-6.46-2.48-14.4-3.48-23.34-3.48-44.21,0-77.49,28.31-77.49,76.49,0,54.14,32.29,76.49,72.02,76.49,9.93,0,19.87-.99,28.81-3.97v-145.54Z"/>
      </g>
    </g>
  </g>
</svg>