<?xml version="1.0" encoding="UTF-8"?>
<svg id="Layer_2" data-name="Layer 2" xmlns="http://www.w3.org/2000/svg" viewBox="0 0 117.45 117.67">
  <defs>
    <style>
      .cls-1 {
        fill: #85aeba;
        stroke: #85aeba;
      }

      .cls-1, .cls-2, .cls-3 {
        stroke-miterlimit: 10;
      }

      .cls-2 {
        fill: #f499c1;
        stroke: #f499c1;
      }

      .cls-4 {
        fill: #282828;
      }

      .cls-3 {
        fill: #fbb516;
        stroke: #fbb516;
      }

      .cls-5 {
        fill: #663434;
      }

      .cls-6 {
        fill: #b79984;
      }

      .cls-7 {
        fill: #f7d5a4;
      }

      .cls-8 {
        fill: #ab5e2a;
      }
    </style>
  </defs>
  <g id="Layer_2-2" data-name="Layer 2">
    <path class="cls-2" d="M14.75,1.25h16.76v29.89H14.75c-7.25,0-13.13-5.88-13.13-13.13v-3.62C1.62,7.14,7.51,1.25,14.75,1.25Z" transform="translate(16.3 -6.97) rotate(45)"/>
    <polygon class="cls-7" points="117.45 117.14 109.02 86.44 90.86 89.73 86.75 108.7 117.45 117.14"/>
    <path class="cls-3" d="M86.65,107.92L15.65,36.92l21.64-21.64,71,71s-10.32,4.53-12.75,6.97c-2.98,2.98-8.89,14.67-8.89,14.67Z"/>
    <path class="cls-1" d="M13.15,33.19l2.93-1.66c6.64-3.75,12.14-9.23,15.91-15.86l1.67-2.92c.46-.8,1.55-.95,2.21-.29l4.27,4.29c.44.45.54,1.13.22,1.68l-2.05,3.59c-3.78,6.62-9.28,12.1-15.91,15.86l-3.6,2.04c-.55.31-1.24.22-1.68-.23l-4.27-4.29c-.65-.65-.5-1.75.3-2.2Z"/>
    <path class="cls-4" d="M117.42,117.2l-3.72-13.54h0c-4.85.88-8.69,4.59-9.73,9.41l-.09.41,13.54,3.72Z"/>
  </g>
  <g id="Layer_3" data-name="Layer 3">
    <path class="cls-5" d="M75.53,58.32L7.77,116.53c-1.87,1.6-4.66,1.5-6.4-.24h0c-1.74-1.74-1.85-4.53-.24-6.4L59.35,42.14l16.18,16.18Z"/>
    <polygon class="cls-6" points="75.56 58.35 59.13 41.91 73.41 30.72 86.55 43.85 75.56 58.35"/>
    <path class="cls-8" d="M90.91.49s18.62-1.76,22.76,2.19c4.37,4.17,3.47,23.91,3.47,23.91l-30.75,17.57-13.14-13.14L90.91.49Z"/>
  </g>
</svg>